<svg width="320" height="24" xmlns="http://www.w3.org/2000/svg" stroke="null">
 <title stroke="null">Logo</title>
 <defs stroke="null">
  <path id="b" d="m22.83853,47.20412c0.283,0.323 0.053,0.829 -0.376,0.829l-5.907,0c-0.285,0 -0.556,-0.121 -0.745,-0.333l-9.414,-10.526l0,10.36c0,0.276 -0.224,0.5 -0.5,0.5l-5.293,0c-0.276,0 -0.5,-0.224 -0.5,-0.5l0,-23c0,-0.276 0.224,-0.5 0.5,-0.5l5.293,0c0.276,0 0.5,0.224 0.5,0.5l0,9.815l9.141,-9.99c0.19,-0.207 0.457,-0.325 0.738,-0.325l5.762,0c0.437,0 0.664,0.521 0.366,0.841l-9.851,10.563l10.287,11.767l-0.001,-0.001z" stroke="null"/>
  <path id="c" d="m46.09453,48.03312c-0.199,0 -0.38,-0.118 -0.459,-0.301l-2.024,-4.669l-10.67,0l-2.024,4.669c-0.079,0.183 -0.259,0.301 -0.459,0.301l-5.212,0c-0.366,0 -0.608,-0.381 -0.453,-0.712l10.782,-23c0.082,-0.176 0.259,-0.288 0.453,-0.288l4.358,0c0.194,0 0.37,0.112 0.453,0.287l10.815,23c0.156,0.332 -0.086,0.713 -0.452,0.713l-5.108,0zm-11.135,-9.668l6.635,0l-3.317,-7.694l-3.317,7.694l-0.001,0z" stroke="null"/>
  <path id="d" d="m55.62853,48.03312c-0.276,0 -0.5,-0.224 -0.5,-0.5l0,-23c0,-0.276 0.224,-0.5 0.5,-0.5l5.293,0c0.276,0 0.5,0.224 0.5,0.5l0,18.428l9.759,0c0.276,0 0.5,0.224 0.5,0.5l0,4.072c0,0.276 -0.224,0.5 -0.5,0.5l-15.552,0z" stroke="null"/>
  <path id="e" d="m75.38253,24.53312c0,-0.276 0.224,-0.5 0.5,-0.5l9.315,0c2.667,0 4.959,0.477 6.874,1.43c1.938,0.953 3.42,2.338 4.446,4.153c1.026,1.793 1.539,3.926 1.539,6.4c0,2.496 -0.513,4.652 -1.539,6.468c-1.003,1.793 -2.474,3.166 -4.412,4.119c-1.915,0.953 -4.218,1.43 -6.908,1.43l-9.315,0c-0.276,0 -0.5,-0.224 -0.5,-0.5l0,-23zm9.37,18.462c2.371,0 4.138,-0.579 5.301,-1.736c1.163,-1.157 1.744,-2.905 1.744,-5.242c0,-2.338 -0.581,-4.074 -1.744,-5.209c-1.163,-1.157 -2.93,-1.736 -5.301,-1.736l-3.078,0l0,13.923l3.078,0z" stroke="null"/>
  <path id="f" d="m103.01653,48.03312c-0.276,0 -0.5,-0.224 -0.5,-0.5l0,-23c0,-0.276 0.224,-0.5 0.5,-0.5l5.293,0c0.276,0 0.5,0.224 0.5,0.5l0,23c0,0.276 -0.224,0.5 -0.5,0.5l-5.293,0z" stroke="null"/>
 </defs>
 <g stroke="null">
  <title stroke="null">Layer 1</title>
  <text fill="#000000" stroke-width="0" x="-0.78283" y="-29.98701" id="svg_8" font-size="24" font-family="'Noto Sans Display'" text-anchor="start" xml:space="preserve" transform="matrix(1.28744 0 0 1.28744 0.0550631 61.7808)" font-weight="bold" stroke="#000">HO MINTI SOCIETY</text>
 </g>
</svg>